<svg id="Layer_1" data-name="Layer 1" xmlns="http://www.w3.org/2000/svg" viewBox="0 0 163 77"><defs><style>.cls-1{fill:#085ed6;}.cls-1,.cls-5,.cls-6{stroke:#085ed6;}.cls-1,.cls-2,.cls-3,.cls-4,.cls-5,.cls-6{stroke-miterlimit:10;}.cls-1,.cls-4,.cls-5,.cls-6{stroke-width:2px;}.cls-2{font-size:21px;font-family:CenturyGothicPro-Bold, Century Gothic Pro;font-weight:700;letter-spacing:0.02em;}.cls-2,.cls-5{fill:#fff;}.cls-2,.cls-3,.cls-4{stroke:#fff;}.cls-3,.cls-4,.cls-6{fill:none;}</style></defs><path class="cls-1" d="M42.39,90.89c-2.6-10.59,9.27-27.45,22.94-27.5,13.48,0,25.39,16.25,23,26.58-2,8.42-13.13,11.23-15.83,11.92C61.27,104.71,44.94,101.3,42.39,90.89Z" transform="translate(11 -37)"/><ellipse class="cls-1" cx="76.33" cy="16.27" rx="10.29" ry="10.06"/><path class="cls-1" d="M75.62,98.8c-2.31-9.36,9.57-23.4,22.94-23.41s25.39,14.3,23,23.41C119.48,106.33,77.94,108.21,75.62,98.8Z" transform="translate(11 -37)"/><ellipse class="cls-1" cx="109.03" cy="27.87" rx="8.76" ry="8.75"/><path class="cls-1" d="M10,97.79c-5.28-9.7,6.32-30.4,19.74-30.4,13.62,0,24.82,21.33,19.74,30.4-2.53,4.5-8.84,5.54-13.73,6.34C29,105.24,14.3,105.6,10,97.79Z" transform="translate(11 -37)"/><ellipse class="cls-1" cx="40.52" cy="20.56" rx="10.29" ry="10.06"/><text class="cls-2" transform="translate(31.83 57.6) scale(0.99 1)">CoLabo</text><path class="cls-3" d="M26.77,56.83" transform="translate(11 -37)"/><path class="cls-3" d="M22.79,57.5" transform="translate(11 -37)"/><path class="cls-3" d="M35.55,55.19" transform="translate(11 -37)"/><path class="cls-3" d="M31.57,55.66" transform="translate(11 -37)"/><path class="cls-3" d="M23,58.71" transform="translate(11 -37)"/><path class="cls-3" d="M27.84,57.57" transform="translate(11 -37)"/><path class="cls-3" d="M31.25,57.06" transform="translate(11 -37)"/><path class="cls-3" d="M36.12,55.92" transform="translate(11 -37)"/><path class="cls-3" d="M56.19,57.36" transform="translate(11 -37)"/><path class="cls-3" d="M61.06,56.23" transform="translate(11 -37)"/><path class="cls-3" d="M65.19,55.36" transform="translate(11 -37)"/><path class="cls-3" d="M70.06,54.23" transform="translate(11 -37)"/><path class="cls-3" d="M95.19,64.36" transform="translate(11 -37)"/><path class="cls-3" d="M100.06,63.23" transform="translate(11 -37)"/><path class="cls-3" d="M103.19,62.36" transform="translate(11 -37)"/><path class="cls-3" d="M108.06,61.23" transform="translate(11 -37)"/><line class="cls-4" x1="112.32" y1="52.02" x2="131.15" y2="40.13"/><circle class="cls-5" cx="126.29" cy="42.63" r="6.5"/><line class="cls-1" x1="128.04" y1="36.13" x2="129.79" y2="23.23"/><circle class="cls-5" cx="129.29" cy="23.63" r="3.5"/><line class="cls-1" x1="132.79" y1="23.63" x2="144.79" y2="24.71"/><circle class="cls-5" cx="149.79" cy="26.13" r="5"/><rect class="cls-6" x="1" y="1" width="161" height="75" rx="13.13"/></svg>